G04 #@! TF.FileFunction,Soldermask,Top*
%FSLAX46Y46*%
G04 Gerber Fmt 4.6, Leading zero omitted, Abs format (unit mm)*
G04 Created by KiCad (PCBNEW 4.0.1-stable) date 14/10/2016 00:42:30*
%MOMM*%
G01*
G04 APERTURE LIST*
%ADD10C,0.020000*%
%ADD11R,2.052400X2.152400*%
%ADD12C,2.052400*%
%ADD13C,1.552400*%
%ADD14C,4.216400*%
%ADD15C,1.752400*%
%ADD16C,1.952400*%
G04 APERTURE END LIST*
D10*
D11*
X240030000Y-182880000D03*
D12*
X242570000Y-182880000D03*
D11*
X240030000Y-173355000D03*
D12*
X242570000Y-173355000D03*
D11*
X283210000Y-173355000D03*
D12*
X285750000Y-173355000D03*
D11*
X218440000Y-106680000D03*
D12*
X220980000Y-106680000D03*
D11*
X261620000Y-106680000D03*
D12*
X264160000Y-106680000D03*
D11*
X283210000Y-116205000D03*
D12*
X285750000Y-116205000D03*
D13*
X218760000Y-181880000D03*
X220660000Y-181880000D03*
D14*
X161925000Y-93980000D03*
D11*
X283210000Y-97155000D03*
D12*
X285750000Y-97155000D03*
D11*
X283210000Y-106680000D03*
D12*
X285750000Y-106680000D03*
D11*
X283210000Y-125730000D03*
D12*
X285750000Y-125730000D03*
D11*
X283210000Y-135255000D03*
D12*
X285750000Y-135255000D03*
D11*
X283210000Y-144780000D03*
D12*
X285750000Y-144780000D03*
D11*
X283210000Y-154305000D03*
D12*
X285750000Y-154305000D03*
D11*
X283210000Y-163830000D03*
D12*
X285750000Y-163830000D03*
D11*
X283210000Y-182880000D03*
D12*
X285750000Y-182880000D03*
D11*
X261620000Y-97155000D03*
D12*
X264160000Y-97155000D03*
D11*
X261620000Y-116205000D03*
D12*
X264160000Y-116205000D03*
D11*
X261620000Y-125730000D03*
D12*
X264160000Y-125730000D03*
D11*
X261620000Y-135255000D03*
D12*
X264160000Y-135255000D03*
D11*
X261620000Y-144780000D03*
D12*
X264160000Y-144780000D03*
D11*
X261620000Y-154305000D03*
D12*
X264160000Y-154305000D03*
D11*
X261620000Y-163830000D03*
D12*
X264160000Y-163830000D03*
D11*
X261620000Y-173355000D03*
D12*
X264160000Y-173355000D03*
D11*
X261620000Y-182880000D03*
D12*
X264160000Y-182880000D03*
D11*
X240030000Y-97155000D03*
D12*
X242570000Y-97155000D03*
D11*
X240030000Y-106680000D03*
D12*
X242570000Y-106680000D03*
D11*
X240030000Y-116205000D03*
D12*
X242570000Y-116205000D03*
D11*
X240030000Y-125730000D03*
D12*
X242570000Y-125730000D03*
D11*
X240030000Y-135255000D03*
D12*
X242570000Y-135255000D03*
D11*
X240030000Y-144780000D03*
D12*
X242570000Y-144780000D03*
D11*
X240030000Y-154305000D03*
D12*
X242570000Y-154305000D03*
D11*
X240030000Y-163830000D03*
D12*
X242570000Y-163830000D03*
D11*
X218440000Y-97155000D03*
D12*
X220980000Y-97155000D03*
D11*
X218440000Y-116205000D03*
D12*
X220980000Y-116205000D03*
D11*
X218440000Y-125730000D03*
D12*
X220980000Y-125730000D03*
D11*
X218440000Y-135255000D03*
D12*
X220980000Y-135255000D03*
D11*
X218440000Y-144780000D03*
D12*
X220980000Y-144780000D03*
D11*
X218440000Y-154305000D03*
D12*
X220980000Y-154305000D03*
D11*
X218440000Y-163830000D03*
D12*
X220980000Y-163830000D03*
D11*
X218440000Y-173355000D03*
D12*
X220980000Y-173355000D03*
D11*
X196850000Y-97155000D03*
D12*
X199390000Y-97155000D03*
D11*
X196850000Y-106680000D03*
D12*
X199390000Y-106680000D03*
D11*
X196850000Y-116205000D03*
D12*
X199390000Y-116205000D03*
D11*
X196850000Y-135255000D03*
D12*
X199390000Y-135255000D03*
D11*
X196850000Y-144780000D03*
D12*
X199390000Y-144780000D03*
D11*
X196850000Y-154305000D03*
D12*
X199390000Y-154305000D03*
D11*
X196850000Y-163830000D03*
D12*
X199390000Y-163830000D03*
D11*
X196850000Y-173355000D03*
D12*
X199390000Y-173355000D03*
D11*
X196850000Y-182880000D03*
D12*
X199390000Y-182880000D03*
D11*
X175260000Y-97155000D03*
D12*
X177800000Y-97155000D03*
D11*
X175260000Y-106680000D03*
D12*
X177800000Y-106680000D03*
D11*
X175260000Y-116205000D03*
D12*
X177800000Y-116205000D03*
D11*
X175260000Y-125730000D03*
D12*
X177800000Y-125730000D03*
D11*
X175260000Y-135255000D03*
D12*
X177800000Y-135255000D03*
D11*
X175260000Y-144780000D03*
D12*
X177800000Y-144780000D03*
D11*
X175260000Y-154305000D03*
D12*
X177800000Y-154305000D03*
D11*
X175260000Y-163830000D03*
D12*
X177800000Y-163830000D03*
D11*
X175260000Y-173355000D03*
D12*
X177800000Y-173355000D03*
D11*
X175260000Y-182880000D03*
D12*
X177800000Y-182880000D03*
D11*
X153670000Y-97155000D03*
D12*
X156210000Y-97155000D03*
D11*
X153670000Y-106680000D03*
D12*
X156210000Y-106680000D03*
D11*
X153670000Y-116205000D03*
D12*
X156210000Y-116205000D03*
D11*
X153670000Y-125730000D03*
D12*
X156210000Y-125730000D03*
D11*
X153670000Y-135255000D03*
D12*
X156210000Y-135255000D03*
D11*
X153670000Y-144780000D03*
D12*
X156210000Y-144780000D03*
D11*
X153670000Y-154305000D03*
D12*
X156210000Y-154305000D03*
D11*
X153670000Y-163830000D03*
D12*
X156210000Y-163830000D03*
D11*
X153670000Y-173355000D03*
D12*
X156210000Y-173355000D03*
D14*
X277495000Y-93980000D03*
X161925000Y-186055000D03*
D11*
X153670000Y-182880000D03*
D12*
X156210000Y-182880000D03*
D14*
X277495000Y-186055000D03*
D15*
X187071000Y-183508000D03*
D16*
X187071000Y-179008000D03*
D11*
X196850000Y-125730000D03*
D12*
X199390000Y-125730000D03*
M02*
