M48
INCH,TZ
T1C0.020
T2C0.030
T3C0.039
T4C0.120
T5C0.063
T6C0.071
%
G90
G05
T1
X6.05Y-5.325
X6.2Y-6.925
X6.275Y-7.15
X6.29Y-3.85
X6.35Y-7.075
X6.4Y-7.075
X6.415Y-5.475
X6.45Y-7.075
X6.5Y-7.075
X6.55Y-7.075
X6.6125Y-4.5625
X6.622Y-7.158
X6.6725Y-5.4
X6.675Y-5.835
X6.725Y-7.025
X6.7975Y-3.715
X6.825Y-4.5417
X6.8664Y-5.8925
X6.89Y-5.8475
X7.075Y-4.1
X7.255Y-4.04
X7.3171Y-3.9275
X7.4Y-4.575
X7.425Y-4.65
X7.45Y-4.75
X7.498Y-5.888
X7.545Y-5.8475
X7.55Y-3.9
X7.5815Y-6.8115
X7.5815Y-6.865
X7.5815Y-6.9125
X7.5815Y-7.07
X7.5815Y-7.1275
X7.585Y-3.95
X7.62Y-4.
X7.64Y-6.825
X7.655Y-4.05
X7.69Y-6.825
X7.8875Y-6.9325
X7.9575Y-5.8475
X7.975Y-7.15
X8.0731Y-7.0998
X8.0975Y-6.0425
X8.1Y-6.67
X8.1229Y-7.1001
X8.15Y-5.425
X8.1679Y-7.1
X8.2129Y-7.1
X8.245Y-6.92
X8.2599Y-7.1013
X8.275Y-5.785
X8.3125Y-4.73
X8.325Y-7.15
X8.37Y-5.3875
X8.38Y-5.99
X8.4Y-7.05
X8.45Y-3.74
X8.53Y-7.0325
X8.6525Y-6.9725
X8.7928Y-4.255
X8.912Y-4.232
X8.975Y-3.925
X8.9875Y-6.4525
X9.01Y-7.0425
X9.015Y-6.855
X9.125Y-3.9
X9.1528Y-4.4528
X9.175Y-6.015
X9.1775Y-6.36
X9.2Y-4.55
X9.25Y-4.675
X9.275Y-3.875
X9.31Y-3.925
X9.3225Y-6.7975
X9.335Y-3.9806
X9.37Y-4.025
X9.45Y-6.9375
X9.6Y-7.085
X9.65Y-3.755
X9.67Y-5.86
X9.68Y-7.14
X9.72Y-6.2725
X9.76Y-7.1
X9.805Y-7.1
X9.85Y-5.425
X9.85Y-7.1
X9.9Y-7.1
X9.93Y-5.8025
X9.945Y-7.1
X10.025Y-7.175
X10.0325Y-4.7575
X10.0725Y-5.4
X10.1Y-7.05
X10.17Y-3.875
X10.175Y-7.075
X10.225Y-4.5417
X10.27Y-5.81
X10.43Y-4.31
X10.5Y-5.7675
X10.575Y-7.125
X10.6Y-4.275
X10.6Y-6.925
X10.725Y-3.965
X10.78Y-5.81
X10.8Y-4.525
X10.835Y-5.765
X10.85Y-4.65
X10.89Y-5.2775
X10.8951Y-4.7049
X10.9Y-7.175
X10.975Y-3.925
X11.01Y-3.975
X11.05Y-4.025
X11.085Y-4.075
T2
X8.6126Y-7.1606
X8.6874Y-7.1606
T3
X6.05Y-3.825
X6.05Y-4.2
X6.05Y-4.575
X6.05Y-4.95
X6.05Y-5.325
X6.05Y-5.7
X6.05Y-6.075
X6.05Y-6.45
X6.05Y-6.825
X6.05Y-7.2
X6.15Y-3.825
X6.15Y-4.2
X6.15Y-4.575
X6.15Y-4.95
X6.15Y-5.325
X6.15Y-5.7
X6.15Y-6.075
X6.15Y-6.45
X6.15Y-6.825
X6.15Y-7.2
X6.9Y-3.825
X6.9Y-4.2
X6.9Y-4.575
X6.9Y-4.95
X6.9Y-5.325
X6.9Y-5.7
X6.9Y-6.075
X6.9Y-6.45
X6.9Y-6.825
X6.9Y-7.2
X7.Y-3.825
X7.Y-4.2
X7.Y-4.575
X7.Y-4.95
X7.Y-5.325
X7.Y-5.7
X7.Y-6.075
X7.Y-6.45
X7.Y-6.825
X7.Y-7.2
X7.75Y-3.825
X7.75Y-4.2
X7.75Y-4.575
X7.75Y-4.95
X7.75Y-5.325
X7.75Y-5.7
X7.75Y-6.075
X7.75Y-6.45
X7.75Y-6.825
X7.75Y-7.2
X7.85Y-3.825
X7.85Y-4.2
X7.85Y-4.575
X7.85Y-4.95
X7.85Y-5.325
X7.85Y-5.7
X7.85Y-6.075
X7.85Y-6.45
X7.85Y-6.825
X7.85Y-7.2
X8.6Y-3.825
X8.6Y-4.2
X8.6Y-4.575
X8.6Y-4.95
X8.6Y-5.325
X8.6Y-5.7
X8.6Y-6.075
X8.6Y-6.45
X8.6Y-6.825
X8.7Y-3.825
X8.7Y-4.2
X8.7Y-4.575
X8.7Y-4.95
X8.7Y-5.325
X8.7Y-5.7
X8.7Y-6.075
X8.7Y-6.45
X8.7Y-6.825
X9.45Y-3.825
X9.45Y-4.2
X9.45Y-4.575
X9.45Y-4.95
X9.45Y-5.325
X9.45Y-5.7
X9.45Y-6.075
X9.45Y-6.45
X9.45Y-6.825
X9.45Y-7.2
X9.55Y-3.825
X9.55Y-4.2
X9.55Y-4.575
X9.55Y-4.95
X9.55Y-5.325
X9.55Y-5.7
X9.55Y-6.075
X9.55Y-6.45
X9.55Y-6.825
X9.55Y-7.2
X10.3Y-3.825
X10.3Y-4.2
X10.3Y-4.575
X10.3Y-4.95
X10.3Y-5.325
X10.3Y-5.7
X10.3Y-6.075
X10.3Y-6.45
X10.3Y-6.825
X10.3Y-7.2
X10.4Y-3.825
X10.4Y-4.2
X10.4Y-4.575
X10.4Y-4.95
X10.4Y-5.325
X10.4Y-5.7
X10.4Y-6.075
X10.4Y-6.45
X10.4Y-6.825
X10.4Y-7.2
X11.15Y-3.825
X11.15Y-4.2
X11.15Y-4.575
X11.15Y-4.95
X11.15Y-5.325
X11.15Y-5.7
X11.15Y-6.075
X11.15Y-6.45
X11.15Y-6.825
X11.15Y-7.2
X11.25Y-3.825
X11.25Y-4.2
X11.25Y-4.575
X11.25Y-4.95
X11.25Y-5.325
X11.25Y-5.7
X11.25Y-6.075
X11.25Y-6.45
X11.25Y-6.825
X11.25Y-7.2
T4
X6.375Y-3.7
X6.375Y-7.325
X10.925Y-3.7
X10.925Y-7.325
T5
X7.365Y-7.2247
T6
X7.365Y-7.0476
T0
M30
