G04 #@! TF.FileFunction,Soldermask,Bot*
%FSLAX46Y46*%
G04 Gerber Fmt 4.6, Leading zero omitted, Abs format (unit mm)*
G04 Created by KiCad (PCBNEW 4.0.1-stable) date 14/10/2016 00:42:30*
%MOMM*%
G01*
G04 APERTURE LIST*
%ADD10C,0.020000*%
%ADD11R,1.110000X2.180000*%
%ADD12R,2.180000X1.110000*%
%ADD13R,2.052400X2.152400*%
%ADD14C,2.052400*%
%ADD15R,1.752600X2.753360*%
%ADD16R,0.652400X1.052400*%
%ADD17R,0.952400X0.902400*%
%ADD18C,1.552400*%
%ADD19C,4.216400*%
%ADD20R,1.052400X0.652400*%
%ADD21R,1.295400X0.660400*%
%ADD22R,1.752600X1.651000*%
%ADD23R,1.346200X1.346200*%
%ADD24R,0.902400X0.952400*%
%ADD25R,1.651000X1.752600*%
%ADD26R,2.152400X2.152400*%
%ADD27C,1.752400*%
%ADD28C,1.952400*%
%ADD29R,1.372400X1.062400*%
%ADD30R,2.753360X1.752600*%
%ADD31R,1.752600X3.751580*%
G04 APERTURE END LIST*
D10*
D11*
X274955000Y-106480000D03*
X273685000Y-106480000D03*
X272415000Y-106480000D03*
X271145000Y-106480000D03*
X269875000Y-106480000D03*
X274955000Y-97990000D03*
X273685000Y-97990000D03*
X272415000Y-97990000D03*
X271145000Y-97990000D03*
X269875000Y-97990000D03*
D12*
X268170000Y-104775000D03*
X268170000Y-103505000D03*
X268170000Y-102235000D03*
X268170000Y-100965000D03*
X268170000Y-99695000D03*
X276660000Y-104775000D03*
X276660000Y-103505000D03*
X276660000Y-102235000D03*
X276660000Y-100965000D03*
X276660000Y-99695000D03*
D13*
X240030000Y-182880000D03*
D14*
X242570000Y-182880000D03*
D13*
X240030000Y-173355000D03*
D14*
X242570000Y-173355000D03*
D12*
X245945000Y-180340000D03*
X245945000Y-179070000D03*
X245945000Y-177800000D03*
X245945000Y-176530000D03*
X245945000Y-175260000D03*
X254435000Y-180340000D03*
X254435000Y-179070000D03*
X254435000Y-177800000D03*
X254435000Y-176530000D03*
X254435000Y-175260000D03*
D11*
X247650000Y-173555000D03*
X248920000Y-173555000D03*
X250190000Y-173555000D03*
X251460000Y-173555000D03*
X252730000Y-173555000D03*
X247650000Y-182045000D03*
X248920000Y-182045000D03*
X250190000Y-182045000D03*
X251460000Y-182045000D03*
X252730000Y-182045000D03*
D15*
X236728000Y-180235860D03*
X236728000Y-176634140D03*
D12*
X202965000Y-180340000D03*
X202965000Y-179070000D03*
X202965000Y-177800000D03*
X202965000Y-176530000D03*
X202965000Y-175260000D03*
X211455000Y-180340000D03*
X211455000Y-179070000D03*
X211455000Y-177800000D03*
X211455000Y-176530000D03*
X211455000Y-175260000D03*
D11*
X204670000Y-173555000D03*
X205940000Y-173555000D03*
X207210000Y-173555000D03*
X208480000Y-173555000D03*
X209750000Y-173555000D03*
X204670000Y-182045000D03*
X205940000Y-182045000D03*
X207210000Y-182045000D03*
X208480000Y-182045000D03*
X209750000Y-182045000D03*
D12*
X159585000Y-179705000D03*
X159585000Y-178435000D03*
X159585000Y-177165000D03*
X159585000Y-175895000D03*
X159585000Y-174625000D03*
X168075000Y-179705000D03*
X168075000Y-178435000D03*
X168075000Y-177165000D03*
X168075000Y-175895000D03*
X168075000Y-174625000D03*
D11*
X161290000Y-172920000D03*
X162560000Y-172920000D03*
X163830000Y-172920000D03*
X165100000Y-172920000D03*
X166370000Y-172920000D03*
X161290000Y-181410000D03*
X162560000Y-181410000D03*
X163830000Y-181410000D03*
X165100000Y-181410000D03*
X166370000Y-181410000D03*
D12*
X279835000Y-173355000D03*
X279835000Y-174625000D03*
X279835000Y-175895000D03*
X279835000Y-177165000D03*
X279835000Y-178435000D03*
X271345000Y-173355000D03*
X271345000Y-174625000D03*
X271345000Y-175895000D03*
X271345000Y-177165000D03*
X271345000Y-178435000D03*
D11*
X278130000Y-180140000D03*
X276860000Y-180140000D03*
X275590000Y-180140000D03*
X274320000Y-180140000D03*
X273050000Y-180140000D03*
X278130000Y-171650000D03*
X276860000Y-171650000D03*
X275590000Y-171650000D03*
X274320000Y-171650000D03*
X273050000Y-171650000D03*
D13*
X283210000Y-173355000D03*
D14*
X285750000Y-173355000D03*
D16*
X252730000Y-170815000D03*
X251230000Y-170815000D03*
D17*
X275804500Y-142748000D03*
X277304500Y-142748000D03*
D13*
X218440000Y-106680000D03*
D14*
X220980000Y-106680000D03*
D17*
X173240000Y-92710000D03*
X174740000Y-92710000D03*
D11*
X188395000Y-105845000D03*
X187125000Y-105845000D03*
X185855000Y-105845000D03*
X184585000Y-105845000D03*
X183315000Y-105845000D03*
X188395000Y-97355000D03*
X187125000Y-97355000D03*
X185855000Y-97355000D03*
X184585000Y-97355000D03*
X183315000Y-97355000D03*
D12*
X181610000Y-104140000D03*
X181610000Y-102870000D03*
X181610000Y-101600000D03*
X181610000Y-100330000D03*
X181610000Y-99060000D03*
X190100000Y-104140000D03*
X190100000Y-102870000D03*
X190100000Y-101600000D03*
X190100000Y-100330000D03*
X190100000Y-99060000D03*
D11*
X231775000Y-105645000D03*
X230505000Y-105645000D03*
X229235000Y-105645000D03*
X227965000Y-105645000D03*
X226695000Y-105645000D03*
X231775000Y-97155000D03*
X230505000Y-97155000D03*
X229235000Y-97155000D03*
X227965000Y-97155000D03*
X226695000Y-97155000D03*
D12*
X224990000Y-103940000D03*
X224990000Y-102670000D03*
X224990000Y-101400000D03*
X224990000Y-100130000D03*
X224990000Y-98860000D03*
X233480000Y-103940000D03*
X233480000Y-102670000D03*
X233480000Y-101400000D03*
X233480000Y-100130000D03*
X233480000Y-98860000D03*
D13*
X261620000Y-106680000D03*
D14*
X264160000Y-106680000D03*
D13*
X283210000Y-116205000D03*
D14*
X285750000Y-116205000D03*
D18*
X218760000Y-181880000D03*
X220660000Y-181880000D03*
D19*
X161925000Y-93980000D03*
D20*
X165735000Y-144474500D03*
X165735000Y-145974500D03*
X201295000Y-140105000D03*
X201295000Y-141605000D03*
X207645000Y-144538000D03*
X207645000Y-146038000D03*
D21*
X276225000Y-141224000D03*
X276225000Y-139954000D03*
X276225000Y-138684000D03*
X276225000Y-137414000D03*
X269875000Y-137414000D03*
X269875000Y-138684000D03*
X269875000Y-139954000D03*
X269875000Y-141224000D03*
X252730000Y-141605000D03*
X252730000Y-140335000D03*
X252730000Y-139065000D03*
X252730000Y-137795000D03*
X246380000Y-137795000D03*
X246380000Y-139065000D03*
X246380000Y-140335000D03*
X246380000Y-141605000D03*
X209550000Y-141605000D03*
X209550000Y-140335000D03*
X209550000Y-139065000D03*
X209550000Y-137795000D03*
X203200000Y-137795000D03*
X203200000Y-139065000D03*
X203200000Y-140335000D03*
X203200000Y-141605000D03*
X226695000Y-179070000D03*
X226695000Y-180340000D03*
X226695000Y-181610000D03*
X226695000Y-182880000D03*
X233045000Y-182880000D03*
X233045000Y-181610000D03*
X233045000Y-180340000D03*
X233045000Y-179070000D03*
D22*
X274218400Y-156540200D03*
D23*
X273227800Y-153289000D03*
X275209000Y-153289000D03*
D22*
X247992900Y-129019300D03*
D23*
X248983500Y-132270500D03*
X247002300Y-132270500D03*
D22*
X251079000Y-158940500D03*
D23*
X250088400Y-155689300D03*
X252069600Y-155689300D03*
D22*
X204089000Y-129476500D03*
D23*
X205079600Y-132727700D03*
X203098400Y-132727700D03*
D22*
X208470500Y-158305500D03*
D23*
X207479900Y-155054300D03*
X209461100Y-155054300D03*
D22*
X160909000Y-129222500D03*
D23*
X161899600Y-132473700D03*
X159918400Y-132473700D03*
D22*
X165735000Y-157099000D03*
D23*
X164744400Y-153847800D03*
X166725600Y-153847800D03*
D22*
X226542600Y-169976800D03*
D23*
X227533200Y-173228000D03*
X225552000Y-173228000D03*
D20*
X266065000Y-100266500D03*
X266065000Y-101766500D03*
D16*
X273800000Y-184404000D03*
X272300000Y-184404000D03*
D20*
X264541000Y-101830000D03*
X264541000Y-100330000D03*
D16*
X251345000Y-168910000D03*
X252845000Y-168910000D03*
D20*
X222504000Y-99846000D03*
X222504000Y-101346000D03*
D16*
X209665000Y-170815000D03*
X208165000Y-170815000D03*
D20*
X179324000Y-100227000D03*
X179324000Y-101727000D03*
D16*
X166612000Y-170180000D03*
X165112000Y-170180000D03*
D20*
X220980000Y-101346000D03*
X220980000Y-99846000D03*
D16*
X208280000Y-168910000D03*
X209780000Y-168910000D03*
D20*
X177673000Y-101727000D03*
X177673000Y-100227000D03*
D16*
X165112000Y-168656000D03*
X166612000Y-168656000D03*
D20*
X274701000Y-151487000D03*
X274701000Y-149987000D03*
X251396500Y-131520500D03*
X251396500Y-133020500D03*
D16*
X250075000Y-153924000D03*
X251575000Y-153924000D03*
X271907000Y-146812000D03*
X270407000Y-146812000D03*
X253353000Y-135890000D03*
X251853000Y-135890000D03*
X249289000Y-147701000D03*
X247789000Y-147701000D03*
D20*
X268097000Y-139954000D03*
X268097000Y-141454000D03*
X254762000Y-138962000D03*
X254762000Y-140462000D03*
X244602000Y-140232000D03*
X244602000Y-141732000D03*
X275209000Y-144157000D03*
X275209000Y-145657000D03*
X255270000Y-144780000D03*
X255270000Y-146280000D03*
X250698000Y-144804000D03*
X250698000Y-146304000D03*
X273685000Y-144169000D03*
X273685000Y-145669000D03*
X253746000Y-144804000D03*
X253746000Y-146304000D03*
X252222000Y-144780000D03*
X252222000Y-146280000D03*
X208026000Y-131901500D03*
X208026000Y-133401500D03*
D16*
X207212500Y-153289000D03*
X208712500Y-153289000D03*
D20*
X164592000Y-131774500D03*
X164592000Y-133274500D03*
X165862000Y-151753000D03*
X165862000Y-150253000D03*
D16*
X209284000Y-135890000D03*
X207784000Y-135890000D03*
X206337600Y-147218400D03*
X204837600Y-147218400D03*
X166485000Y-135128000D03*
X164985000Y-135128000D03*
X162929000Y-147066000D03*
X161429000Y-147066000D03*
D20*
X211074000Y-139025500D03*
X211074000Y-140525500D03*
X164338000Y-144474500D03*
X164338000Y-145974500D03*
X210210400Y-144550000D03*
X210210400Y-146050000D03*
X167259000Y-144474500D03*
X167259000Y-145974500D03*
X235521500Y-184035000D03*
X235521500Y-185535000D03*
X235204000Y-172668500D03*
X235204000Y-174168500D03*
X221615000Y-177050000D03*
X221615000Y-178550000D03*
D13*
X283210000Y-97155000D03*
D14*
X285750000Y-97155000D03*
D13*
X283210000Y-106680000D03*
D14*
X285750000Y-106680000D03*
D13*
X283210000Y-125730000D03*
D14*
X285750000Y-125730000D03*
D13*
X283210000Y-135255000D03*
D14*
X285750000Y-135255000D03*
D13*
X283210000Y-144780000D03*
D14*
X285750000Y-144780000D03*
D13*
X283210000Y-154305000D03*
D14*
X285750000Y-154305000D03*
D13*
X283210000Y-163830000D03*
D14*
X285750000Y-163830000D03*
D13*
X283210000Y-182880000D03*
D14*
X285750000Y-182880000D03*
D13*
X261620000Y-97155000D03*
D14*
X264160000Y-97155000D03*
D13*
X261620000Y-116205000D03*
D14*
X264160000Y-116205000D03*
D13*
X261620000Y-125730000D03*
D14*
X264160000Y-125730000D03*
D13*
X261620000Y-135255000D03*
D14*
X264160000Y-135255000D03*
D13*
X261620000Y-144780000D03*
D14*
X264160000Y-144780000D03*
D13*
X261620000Y-154305000D03*
D14*
X264160000Y-154305000D03*
D13*
X261620000Y-163830000D03*
D14*
X264160000Y-163830000D03*
D13*
X261620000Y-173355000D03*
D14*
X264160000Y-173355000D03*
D13*
X261620000Y-182880000D03*
D14*
X264160000Y-182880000D03*
D13*
X240030000Y-97155000D03*
D14*
X242570000Y-97155000D03*
D13*
X240030000Y-106680000D03*
D14*
X242570000Y-106680000D03*
D13*
X240030000Y-116205000D03*
D14*
X242570000Y-116205000D03*
D13*
X240030000Y-125730000D03*
D14*
X242570000Y-125730000D03*
D13*
X240030000Y-135255000D03*
D14*
X242570000Y-135255000D03*
D13*
X240030000Y-144780000D03*
D14*
X242570000Y-144780000D03*
D13*
X240030000Y-154305000D03*
D14*
X242570000Y-154305000D03*
D13*
X240030000Y-163830000D03*
D14*
X242570000Y-163830000D03*
D13*
X218440000Y-97155000D03*
D14*
X220980000Y-97155000D03*
D13*
X218440000Y-116205000D03*
D14*
X220980000Y-116205000D03*
D13*
X218440000Y-125730000D03*
D14*
X220980000Y-125730000D03*
D13*
X218440000Y-135255000D03*
D14*
X220980000Y-135255000D03*
D13*
X218440000Y-144780000D03*
D14*
X220980000Y-144780000D03*
D13*
X218440000Y-154305000D03*
D14*
X220980000Y-154305000D03*
D13*
X218440000Y-163830000D03*
D14*
X220980000Y-163830000D03*
D13*
X218440000Y-173355000D03*
D14*
X220980000Y-173355000D03*
D13*
X196850000Y-97155000D03*
D14*
X199390000Y-97155000D03*
D13*
X196850000Y-106680000D03*
D14*
X199390000Y-106680000D03*
D13*
X196850000Y-116205000D03*
D14*
X199390000Y-116205000D03*
D13*
X196850000Y-135255000D03*
D14*
X199390000Y-135255000D03*
D13*
X196850000Y-144780000D03*
D14*
X199390000Y-144780000D03*
D13*
X196850000Y-154305000D03*
D14*
X199390000Y-154305000D03*
D13*
X196850000Y-163830000D03*
D14*
X199390000Y-163830000D03*
D13*
X196850000Y-173355000D03*
D14*
X199390000Y-173355000D03*
D13*
X196850000Y-182880000D03*
D14*
X199390000Y-182880000D03*
D13*
X175260000Y-97155000D03*
D14*
X177800000Y-97155000D03*
D13*
X175260000Y-106680000D03*
D14*
X177800000Y-106680000D03*
D13*
X175260000Y-116205000D03*
D14*
X177800000Y-116205000D03*
D13*
X175260000Y-125730000D03*
D14*
X177800000Y-125730000D03*
D13*
X175260000Y-135255000D03*
D14*
X177800000Y-135255000D03*
D13*
X175260000Y-144780000D03*
D14*
X177800000Y-144780000D03*
D13*
X175260000Y-154305000D03*
D14*
X177800000Y-154305000D03*
D13*
X175260000Y-163830000D03*
D14*
X177800000Y-163830000D03*
D13*
X175260000Y-173355000D03*
D14*
X177800000Y-173355000D03*
D13*
X175260000Y-182880000D03*
D14*
X177800000Y-182880000D03*
D13*
X153670000Y-97155000D03*
D14*
X156210000Y-97155000D03*
D13*
X153670000Y-106680000D03*
D14*
X156210000Y-106680000D03*
D13*
X153670000Y-116205000D03*
D14*
X156210000Y-116205000D03*
D13*
X153670000Y-125730000D03*
D14*
X156210000Y-125730000D03*
D13*
X153670000Y-135255000D03*
D14*
X156210000Y-135255000D03*
D13*
X153670000Y-144780000D03*
D14*
X156210000Y-144780000D03*
D13*
X153670000Y-154305000D03*
D14*
X156210000Y-154305000D03*
D13*
X153670000Y-163830000D03*
D14*
X156210000Y-163830000D03*
D13*
X153670000Y-173355000D03*
D14*
X156210000Y-173355000D03*
D24*
X273177000Y-151372000D03*
X273177000Y-149872000D03*
X252984000Y-131532500D03*
X252984000Y-133032500D03*
D17*
X270407000Y-145288000D03*
X271907000Y-145288000D03*
D24*
X254698500Y-137834500D03*
X254698500Y-136334500D03*
D17*
X247789000Y-146304000D03*
X249289000Y-146304000D03*
X271895000Y-142875000D03*
X270395000Y-142875000D03*
X271907000Y-144272000D03*
X270407000Y-144272000D03*
X255270000Y-143510000D03*
X253770000Y-143510000D03*
X249289000Y-143510000D03*
X247789000Y-143510000D03*
X249289000Y-144907000D03*
X247789000Y-144907000D03*
D24*
X209486500Y-131953000D03*
X209486500Y-133453000D03*
X164465000Y-150316500D03*
X164465000Y-151816500D03*
X211074000Y-137973500D03*
X211074000Y-136473500D03*
D17*
X204863000Y-145923000D03*
X206363000Y-145923000D03*
D24*
X167894000Y-137783000D03*
X167894000Y-136283000D03*
D17*
X161429000Y-145732500D03*
X162929000Y-145732500D03*
X211939000Y-143383000D03*
X210439000Y-143383000D03*
X206363000Y-143383000D03*
X204863000Y-143383000D03*
X165850000Y-143383000D03*
X164350000Y-143383000D03*
X162929000Y-143383000D03*
X161429000Y-143383000D03*
X162917000Y-144526000D03*
X161417000Y-144526000D03*
D24*
X228219000Y-159944500D03*
X228219000Y-158444500D03*
D17*
X224040000Y-176911000D03*
X225540000Y-176911000D03*
X222897000Y-179578000D03*
X224397000Y-179578000D03*
D24*
X268224000Y-137084500D03*
X268224000Y-135584500D03*
X206629000Y-136132000D03*
X206629000Y-134632000D03*
X163576000Y-134505000D03*
X163576000Y-136005000D03*
D17*
X212217000Y-141605000D03*
X213717000Y-141605000D03*
X169061000Y-141605000D03*
X170561000Y-141605000D03*
D21*
X166370000Y-141605000D03*
X166370000Y-140335000D03*
X166370000Y-139065000D03*
X166370000Y-137795000D03*
X160020000Y-137795000D03*
X160020000Y-139065000D03*
X160020000Y-140335000D03*
X160020000Y-141605000D03*
D17*
X209105500Y-143383000D03*
X207605500Y-143383000D03*
X206363000Y-144653000D03*
X204863000Y-144653000D03*
D20*
X158369000Y-140347000D03*
X158369000Y-141847000D03*
X167894000Y-138938000D03*
X167894000Y-140438000D03*
D17*
X167144000Y-143383000D03*
X168644000Y-143383000D03*
D24*
X166179500Y-131774500D03*
X166179500Y-133274500D03*
D20*
X168656000Y-144474500D03*
X168656000Y-145974500D03*
X208915000Y-144538000D03*
X208915000Y-146038000D03*
D17*
X207149000Y-151955500D03*
X208649000Y-151955500D03*
D20*
X211582000Y-144538000D03*
X211582000Y-146038000D03*
D17*
X252095000Y-143510000D03*
X250595000Y-143510000D03*
D24*
X248920000Y-136005000D03*
X248920000Y-134505000D03*
D17*
X250075000Y-152654000D03*
X251575000Y-152654000D03*
D19*
X277495000Y-93980000D03*
X161925000Y-186055000D03*
D13*
X153670000Y-182880000D03*
D14*
X156210000Y-182880000D03*
D19*
X277495000Y-186055000D03*
D17*
X161175000Y-98425000D03*
X162675000Y-98425000D03*
X214757000Y-92964000D03*
X216257000Y-92964000D03*
X245388000Y-97155000D03*
X246888000Y-97155000D03*
X258318000Y-97155000D03*
X256818000Y-97155000D03*
X283869000Y-94107000D03*
X285369000Y-94107000D03*
X197358000Y-93091000D03*
X198858000Y-93091000D03*
D22*
X165735000Y-166116000D03*
D23*
X164744400Y-162864800D03*
X166725600Y-162864800D03*
D25*
X173926500Y-102870000D03*
D23*
X170675300Y-103860600D03*
X170675300Y-101879400D03*
D22*
X209042000Y-166624000D03*
D23*
X208051400Y-163372800D03*
X210032600Y-163372800D03*
D25*
X217678000Y-102870000D03*
D23*
X214426800Y-103860600D03*
X214426800Y-101879400D03*
D22*
X252095000Y-166560500D03*
D23*
X251104400Y-163309300D03*
X253085600Y-163309300D03*
D25*
X262001000Y-101600000D03*
D23*
X258749800Y-102590600D03*
X258749800Y-100609400D03*
D25*
X267144500Y-183515000D03*
D23*
X270395700Y-182524400D03*
X270395700Y-184505600D03*
D26*
X192571000Y-183508000D03*
X192571000Y-177358000D03*
X181571000Y-183508000D03*
X181571000Y-177358000D03*
D27*
X187071000Y-183508000D03*
D28*
X187071000Y-179008000D03*
D16*
X238442500Y-168656000D03*
X239942500Y-168656000D03*
X227977000Y-185610500D03*
X229477000Y-185610500D03*
X227977000Y-187071000D03*
X229477000Y-187071000D03*
D17*
X255738500Y-141605000D03*
X257238500Y-141605000D03*
D20*
X169799000Y-139751500D03*
X169799000Y-138251500D03*
X213169500Y-140259500D03*
X213169500Y-138759500D03*
X256730500Y-140057000D03*
X256730500Y-138557000D03*
D16*
X275296500Y-135509000D03*
X276796500Y-135509000D03*
D29*
X162941000Y-151876000D03*
X162941000Y-148606000D03*
X167894000Y-131731000D03*
X167894000Y-135001000D03*
X205676500Y-151876000D03*
X205676500Y-148606000D03*
X211074000Y-131842000D03*
X211074000Y-135112000D03*
X248475500Y-152574500D03*
X248475500Y-149304500D03*
X254762000Y-131508500D03*
X254762000Y-134778500D03*
X271145000Y-151606000D03*
X271145000Y-148336000D03*
D30*
X175514000Y-139954000D03*
X179115720Y-139954000D03*
D31*
X234505500Y-169819320D03*
X234505500Y-164317680D03*
D30*
X218480640Y-139954000D03*
X222082360Y-139954000D03*
X260858000Y-140081000D03*
X264459720Y-140081000D03*
D15*
X272796000Y-134683500D03*
X272796000Y-131081780D03*
D16*
X272300000Y-182880000D03*
X273800000Y-182880000D03*
D13*
X196850000Y-125730000D03*
D14*
X199390000Y-125730000D03*
M02*
